# xmcd CD database file
#
# Track frame offsets:
#	150
#	17410
#	38222
#	57700
#	72751
#	92688
#	113369
#	133344
#	155283
#	172505
#	195352
#	210344
#	233856
#	260604
#
# Disc length: 3682 seconds
#
# Revision: 0
# Processed by: cddbd v1.5.1PL0 Copyright (c) Steve Scherf et al.
# Submitted via: CDex 1.51
#
DISCID=ad0e600e
DTITLE=Johnny Martin - Nothing Personal
DYEAR=2002
DGENRE=Jazz
TTITLE0=You Make Me Feel So Young
TTITLE1=South of the Border
TTITLE2=Old Devil Moon
TTITLE3=They Way You Look Tonight
TTITLE4=Too Young
TTITLE5=Beyond the Sea
TTITLE6=Fly Me to the Moon
TTITLE7=That's All
TTITLE8=It's Only a Paper Moon
TTITLE9=It Happened in Monterey
TTITLE10=Anything Goes
TTITLE11=What a Wonderful World
TTITLE12=Route 66
TTITLE13=Get Me to the Church
EXTD=YEAR: 2002
EXTT0=
EXTT1=
EXTT2=
EXTT3=
EXTT4=
EXTT5=
EXTT6=
EXTT7=
EXTT8=
EXTT9=
EXTT10=
EXTT11=
EXTT12=
EXTT13=
PLAYORDER=
